# xmcd
#
# Track frame offsets:
#	150
#	22390
#	36622
#	48957
#
# Disc length: 771 seconds
#
# Revision: 1
# Processed by: cddbd v1.5.1PL0 Copyright (c) Steve Scherf et al.
# Submitted via: CDex 1.50Beta5
#
DISCID=36030104
DTITLE=The Surf Coasters - ハートに火をつけて Light My Fire
DYEAR=2002
DGENRE=Rock
TTITLE0=ハートに火をつけて Light My Fire
TTITLE1=Drive Out!!
TTITLE2=THE Clash (No Electric Version)
TTITLE3=Twister (LIVE,early Version)
EXTD=
EXTT0=
EXTT1=
EXTT2=
EXTT3=
PLAYORDER=
